<?xml version="1.0" encoding="utf-8"?>
<!-- Generator: Adobe Illustrator 18.1.1, SVG Export Plug-In . SVG Version: 6.00 Build 0)  -->
<svg version="1.1" id="Layer_1" xmlns="http://www.w3.org/2000/svg" xmlns:xlink="http://www.w3.org/1999/xlink" x="0px" y="0px"
	 viewBox="-1026 411.5 256 256" enable-background="new -1026 411.5 256 256" xml:space="preserve">
<g id="Your_Icon">
	<path fill="#BC9D6D" d="M-959.1,652.6c2.7-0.1,4.8-2.2,5-4.8c0.1,2.8,2.4,5.1,5.3,5c2.8-0.1,5.1-2.4,5-5.3
		c-0.1-3-0.2-10.8-0.2-13.6c0.1,0,0.1,0,0.2,0c18.4-0.6,37.5-16.6,38.2-46c0.3-12.7-4.3-24.8-13.1-34c-6-6.3-13.3-10.6-21.4-12.9
		c0.4-1.2,0.7-2.4,0.8-3.8c0.1-3.4-1.1-6.5-3.5-9c-2.3-2.4-5.4-3.8-8.8-3.9c-6.2-0.2-11.7,4.4-12.7,10.5c-0.1,0.6-0.1,1.1-0.2,1.7
		c0,1.3,0.2,2.6,0.5,3.8c-1.3,0.3-2.6,0.7-3.9,1.1l-4.3-8.5c3-2.7,5.2-6.3,5.8-10.5c0.3-2,0.3-4.1-0.1-6.2l-4.1-22.5
		c-0.4-2.1-1.1-4.1-2.2-5.9l11-11.4c0.3,0.1,0.6,0.3,0.9,0.4c4.5,1.6,9.4,1.4,13.8-0.7l20.7-9.8c5.3-2.5,9.1-7.5,10.1-13.4
		c0,0,0-0.1,0-0.1l10.6-1.4c2.2,4.2,6.1,7.4,11,8.8l22,6.2c4.6,1.3,9.4,0.7,13.5-1.5l5.4,5.4c-0.8,1.6-1.4,3.4-1.7,5.2
		c-0.4,2.5-0.3,5,0.3,7.4l5.7,22.1c1.7,6.6,6.9,11.4,13.1,13l0.6,7.5c-15.7,2.3-29.9,12.4-36.7,28c-2.2,5-3.6,9.8-4.3,14.4
		c-3.3,20.4,6.1,36.7,19.6,43.5c0.1,0,0.1,0.1,0.2,0.1c-1.2,2.6-4.6,9.6-5.9,12.4c-1.2,2.6-0.2,5.7,2.4,6.9c2.6,1.2,5.7,0.2,6.9-2.4
		c0,0,0,0,0,0c-0.1,0.3-0.3,0.7-0.3,1c-0.4,2.2,0.7,4.5,2.9,5.5c2.6,1.2,5.7,0.2,6.9-2.4c0.5-1,4.6-9.6,6-12.7c0.1,0,0.1,0,0.2,0.1
		c17.3,6.4,41-1.3,52.7-28.2c8.8-20.3,2.3-43.4-14.4-56.5c0.8-1,1.6-2,2.1-3.2c0.4-1,0.7-2,0.9-3c0.9-5.7-2.1-11.3-7.4-13.6
		c-6.4-2.8-13.8,0.2-16.5,6.5c-0.4,1-0.7,2-0.9,3c0,0.3,0,0.5-0.1,0.8c-1.3-0.2-2.7-0.4-4-0.5l-0.6-7.6c6.2-2.2,10.8-7.5,11.9-14.1
		c0.4-2.5,0.3-5-0.3-7.4l-5.7-22.1c-2.5-9.6-12.3-15.5-22-13c-1.6,0.4-3.1,1.1-4.5,1.9l-5.2-5.3c0.6-1.1,1.1-2.3,1.5-3.6
		c2.7-9.7-3-19.6-12.5-22.3l-22-6.2c-4.6-1.3-9.5-0.7-13.7,1.6s-7.2,6.2-8.6,10.8c-0.2,0.7-0.3,1.3-0.4,2c-0.1,0.5-0.1,0.9-0.2,1.3
		l-9.9,1.4c0-0.1-0.1-0.2-0.1-0.3c-2.1-4.4-5.7-7.6-10.2-9.3c-4.5-1.6-9.4-1.4-13.8,0.7l-20.6,9.8c-5.3,2.5-9.1,7.5-10.1,13.4
		c-0.6,3.6-0.1,7.3,1.5,10.6c0.4,0.8,0.8,1.6,1.3,2.3l-10.5,10.9c-3.5-1.7-7.4-2.3-11.3-1.6c-7.5,1.4-13.3,7.3-14.6,14.8
		c-0.3,2-0.3,4.1,0.1,6.2l4.1,22.5c1.8,9.6,10.8,16,20.4,14.6l4.2,8.3c-11.9,7-20.5,19.1-22.9,33.3c-0.3,2.1-0.6,4.3-0.6,6.5
		c-0.7,29.4,17.5,46.3,35.9,47.8c0.1,0,0.2,0,0.2,0c0,3.4,0.2,12.9,0.2,14.1C-964.3,650.4-962,652.6-959.1,652.6z M-794.6,587.6
		c-7,16-22.8,28.9-39.7,22.7c-5.2-1.9-10.8,0.1-12.9,4.7c1.9-4.6-0.4-10.1-5.4-12.6c-16-8.1-17.4-28.5-10.5-44.5
		c8.2-18.8,30.2-27.5,49.1-19.3C-795.1,546.7-786.4,568.7-794.6,587.6z M-811,526.1c0.5-1.1,1.8-1.7,3-1.2c0.9,0.4,1.5,1.4,1.3,2.4
		c0,0.2-0.1,0.4-0.2,0.5c-0.5,1.1-1.8,1.7-3,1.2c0,0,0,0,0,0s0,0,0,0C-810.9,528.5-811.5,527.2-811,526.1z M-830.2,476.6l5.7,22.1
		c0.3,1,0.3,2.1,0.1,3.2c-0.3,1.8-1.2,3.4-2.6,4.6l-0.6-7.3c-0.2-2.8-2.7-5-5.6-4.7c-2.4,0.2-4.3,2-4.7,4.3c-0.1,0.4-0.1,0.8,0,1.3
		l0.5,6.1c-1-1-1.7-2.2-2.1-3.6l-5.7-22.1c-0.1-0.5-0.2-1.1-0.2-1.6l4.1,4.1c2,2,5.3,2,7.3,0c2-2,2-5.3,0-7.3l-4.7-4.7
		C-834.9,470.4-831.2,472.8-830.2,476.6z M-893.6,436.2c1.8-1,3.9-1.3,5.9-0.7l22,6.2c3.5,1,5.7,4.2,5.6,7.7l-2.8-2.8
		c-2-2-5.3-2-7.3,0c-0.8,0.8-1.3,1.8-1.5,2.8c-0.3,1.6,0.2,3.3,1.4,4.5l2.9,3c-0.9,0.1-1.7,0-2.6-0.2l-22-6.2
		c-0.5-0.1-0.9-0.3-1.4-0.5l3.9-0.5c2.8-0.4,4.8-3,4.4-5.8c-0.4-2.8-3-4.8-5.8-4.4l-6.1,0.8C-896.2,438.3-895.1,437-893.6,436.2z
		 M-958.1,453l20.6-9.8c1.9-0.9,4-1,5.9-0.3c0.9,0.3,1.7,0.8,2.4,1.4l-4.1,0.6c-2.3,0.3-4,2.1-4.4,4.3c-0.1,0.5-0.1,1,0,1.5
		c0.4,2.8,3,4.8,5.8,4.4l4-0.5c-0.8,1.1-1.8,2-3,2.6l-20.7,9.8c-0.5,0.2-1,0.4-1.5,0.5l3.4-3.5c2-2.1,1.9-5.3-0.1-7.3
		c-2.1-2-5.3-1.9-7.3,0.1l-5.1,5.3C-963.1,458.6-961.4,454.6-958.1,453z M-991.7,520.9l-4.1-22.5c-0.7-4.1,2.1-8.2,6.2-9
		c0.4-0.1,0.9-0.1,1.3-0.1l-3.1,3.2c-0.8,0.8-1.2,1.7-1.4,2.7c-0.3,1.6,0.2,3.3,1.5,4.6c2.1,2,5.3,1.9,7.3-0.1l3.5-3.6l4,22
		c0.2,0.9,0.2,1.8,0,2.6c-0.1,0.8-0.4,1.5-0.7,2.1l-2.4-4.8c-1.3-2.5-4.4-3.6-6.9-2.3c-1.5,0.8-2.5,2.2-2.8,3.8
		c-0.2,1,0,2.1,0.5,3.2l2,3.9C-989.3,525.8-991.2,523.7-991.7,520.9z M-953.6,538.4c-0.2-0.3-0.6-0.8-0.6-1.6c0-1.3,1.1-2.2,2.3-2.2
		c0.8,0,1.3,0.4,1.6,0.7c0.2,0.3,0.6,0.8,0.6,1.6c0,0.1,0,0.2,0,0.3c-0.2,1.1-1.1,1.9-2.3,1.9c0,0,0,0,0,0c0,0,0,0,0,0
		C-952.8,539.1-953.3,538.7-953.6,538.4z M-990.5,585.8c0.5-20.6,17.6-36.9,38.2-36.3c10,0.2,19.2,4.4,26.1,11.6
		c6.9,7.2,10.5,16.7,10.3,26.6c-0.6,23-14.6,35.5-28.3,35.9c-5.5,0.2-9.9,4.2-10.2,9.1c0-5-4.2-9.2-9.7-9.6
		C-981.9,621.6-990.9,603.2-990.5,585.8z"/>
</g>
</svg>
