<?xml version="1.0" encoding="utf-8"?>
<!-- Generator: Adobe Illustrator 18.1.1, SVG Export Plug-In . SVG Version: 6.00 Build 0)  -->
<svg version="1.1" id="Layer_1" xmlns="http://www.w3.org/2000/svg" xmlns:xlink="http://www.w3.org/1999/xlink" x="0px" y="0px"
	 viewBox="-987 413 256 156" enable-background="new -987 413 256 156" xml:space="preserve">
<g>
	<path fill="#BC9D6D" d="M-795.6,502.7C-795.5,502.7-795.5,502.7-795.6,502.7c11.6-3.5,23.6-8.2,35.1-14.5
		c18.5-10.8,28,0.4,21.1,17.3c-5.9,16-37,45.8-64.1,52.6c-10.4-7.3-30.8-12.4-54.3-12.4c-23.5,0.1-43.9,5.1-54.3,12.4
		c-27.1-6.8-58.3-36.6-64.1-52.6c-6.9-16.9,2.6-28.1,21.1-17.3c11.6,6.3,23.6,11,35.1,14.5c24.8,7.5,47.6,9.3,59.6,9.3l6.6,0
		C-841.9,511.9-819.7,509.9-795.6,502.7z"/>
	<g id="XMLID_1_">
		<path fill="#BC9D6D" d="M-829.1,427.5c9.7,4.8,25.4,50.3,31.5,69c-23.4,6.8-44.7,8.6-56.3,8.8l-6.5,0c-11.6,0-33.5-1.7-57.6-8.7
			c6.1-18.6,21.9-64.2,31.5-69c11.1-5.6,20.6,3.6,28.3,4.5h-1.5c0.6,0.1,1.2,0.1,1.9,0c0.6,0.1,1.3,0,1.9,0h-1.5
			C-849.7,431.1-840.2,421.9-829.1,427.5z M-832.9,462.8c0-2-1.6-3.7-3.7-3.7c-1.9,0-3.4,1.4-3.6,3.2l-11.3-1.6l-5-10.1
			c1.3-0.5,2.3-1.9,2.3-3.4c0-2-1.6-3.7-3.7-3.7s-3.7,1.6-3.7,3.7c0,1.5,1,2.9,2.3,3.4l-5,10l-11.3,1.6c-0.2-1.8-1.8-3.2-3.6-3.2
			c-2,0-3.7,1.6-3.7,3.7c0,2,1.6,3.7,3.7,3.7c1.2,0,2.3-0.6,3-1.6l8,7.8l-2,11.7c-0.4-0.2-0.9-0.3-1.5-0.3c-2,0-3.7,1.6-3.7,3.7
			s1.6,3.7,3.7,3.7c2,0,3.7-1.6,3.7-3.7c0-0.8-0.2-1.5-0.6-2.1l10.7-5.6l10.6,5.6c-0.4,0.6-0.6,1.3-0.6,2.1c0,2,1.6,3.7,3.7,3.7
			c2,0,3.7-1.6,3.7-3.7s-1.6-3.7-3.7-3.7c-0.5,0-1,0.1-1.4,0.3l-2-11.7l8-7.8c0.7,0.9,1.8,1.5,3,1.5
			C-834.5,466.4-832.9,464.8-832.9,462.8z"/>
	</g>
</g>
</svg>
